<svg version="1.1" viewBox="0.0 0.0 600.0 371.0" fill="none" stroke="none" stroke-linecap="square" stroke-miterlimit="10" width="600" height="371" xmlns:xlink="http://www.w3.org/1999/xlink" xmlns="http://www.w3.org/2000/svg"><path fill="#ffffff" d="M0 0L600.0 0L600.0 371.0L0 371.0L0 0Z" fill-rule="nonzero"/><path fill="#ea4335" d="M300.0 54.916668C345.27335 54.916668 388.08298 75.53269 416.31046 110.92883C444.53793 146.32497 455.11105 192.64877 445.03677 236.78703L300.0 203.68333Z" fill-rule="nonzero"/><path fill="#4285f4" d="M445.03677 236.78703C427.71378 312.68402 354.8068 362.39117 277.82748 350.7884C200.84816 339.18564 145.83167 270.1971 151.64932 192.56598C157.46696 114.934845 222.15118 54.916668 300.0 54.916668L300.0 203.68333Z" fill-rule="nonzero"/><path fill="#000000" d="M394.05325 134.10202L394.05325 131.69577L389.69388 131.69577L389.69388 130.57077L394.272 124.086395L395.272 124.086395L395.272 130.57077L396.63138 130.57077L396.63138 131.69577L395.272 131.69577L395.272 134.10202L394.05325 134.10202ZM394.05325 130.57077L394.05325 126.055145L390.91263 130.57077L394.05325 130.57077Z" fill-rule="nonzero"/><path fill="#000000" d="M206.07793 281.36572L204.84355 281.36572L204.84355 273.52197Q204.40605 273.94385 203.67168 274.38135Q202.95293 274.80322 202.39043 275.00635L202.39043 273.81885Q203.42168 273.33447 204.1873 272.64697Q204.96855 271.95947 205.28105 271.30322L206.07793 271.30322L206.07793 281.36572ZM209.4373 276.42822Q209.4373 274.64697 209.79668 273.56885Q210.17168 272.4751 210.89043 271.89697Q211.60918 271.30322 212.70293 271.30322Q213.51543 271.30322 214.1248 271.63135Q214.73418 271.95947 215.1248 272.56885Q215.53105 273.17822 215.7498 274.05322Q215.96855 274.92822 215.96855 276.42822Q215.96855 278.19385 215.60918 279.27197Q215.2498 280.3501 214.53105 280.94385Q213.8123 281.5376 212.70293 281.5376Q211.26543 281.5376 210.4373 280.49072Q209.4373 279.24072 209.4373 276.42822ZM210.70293 276.42822Q210.70293 278.89697 211.28105 279.70947Q211.85918 280.52197 212.70293 280.52197Q213.5623 280.52197 214.14043 279.70947Q214.71855 278.88135 214.71855 276.42822Q214.71855 273.94385 214.14043 273.13135Q213.5623 272.31885 212.6873 272.31885Q211.84355 272.31885 211.34355 273.0376Q210.70293 273.95947 210.70293 276.42822Z" fill-rule="nonzero"/><path fill="#000000" d="M19.471874 287.3001L19.471874 278.70636L20.628124 278.70636L25.14375 285.45636L25.14375 278.70636L26.2375 278.70636L26.2375 287.3001L25.065624 287.3001L20.55 280.5501L20.55 287.3001L19.471874 287.3001ZM27.95625 284.19073Q27.95625 282.45636 28.909374 281.62823Q29.70625 280.94073 30.8625 280.94073Q32.14375 280.94073 32.95625 281.7845Q33.784374 282.6126 33.784374 284.097Q33.784374 285.3001 33.425 285.9876Q33.065624 286.6751 32.3625 287.06573Q31.675 287.44073 30.8625 287.44073Q29.565624 287.44073 28.753124 286.6126Q27.95625 285.76886 27.95625 284.19073ZM29.034374 284.19073Q29.034374 285.37823 29.55 285.972Q30.08125 286.56573 30.8625 286.56573Q31.659374 286.56573 32.175 285.972Q32.690624 285.37823 32.690624 284.1595Q32.690624 283.00323 32.159374 282.4095Q31.64375 281.81573 30.8625 281.81573Q30.08125 281.81573 29.55 282.4095Q29.034374 282.9876 29.034374 284.19073Z" fill-rule="nonzero"/><path fill="#9e9e9e" d="M19.1125 296.83136L19.1125 295.81573L24.675 295.81573L24.675 296.64386Q23.8625 297.51886 23.05 298.972Q22.253124 300.4095 21.815624 301.94073Q21.4875 303.01886 21.409374 304.3001L20.315624 304.3001Q20.33125 303.2845 20.70625 301.847Q21.096874 300.4095 21.8 299.08136Q22.51875 297.75323 23.33125 296.83136L19.1125 296.83136ZM30.01875 304.3001L28.971874 304.3001L28.971874 297.58136Q28.58125 297.94073 27.95625 298.31573Q27.346874 298.6751 26.8625 298.847L26.8625 297.83136Q27.7375 297.4095 28.39375 296.83136Q29.065624 296.2376 29.346874 295.6751L30.01875 295.6751L30.01875 304.3001ZM33.64375 304.3001L33.64375 303.097L34.846874 303.097L34.846874 304.3001L33.64375 304.3001ZM39.425 304.3001L39.425 302.2376L35.70625 302.2376L35.70625 301.26886L39.628124 295.70636L40.4875 295.70636L40.4875 301.26886L41.64375 301.26886L41.64375 302.2376L40.4875 302.2376L40.4875 304.3001L39.425 304.3001ZM39.425 301.26886L39.425 297.4095L36.7375 301.26886L39.425 301.26886ZM43.253124 297.76886Q43.253124 296.847 43.70625 296.20636Q44.175 295.56573 45.05 295.56573Q45.8625 295.56573 46.39375 296.14386Q46.925 296.722 46.925 297.83136Q46.925 298.9251 46.378124 299.51886Q45.846874 300.097 45.065624 300.097Q44.284374 300.097 43.76875 299.51886Q43.253124 298.94073 43.253124 297.76886ZM45.08125 296.2845Q44.690624 296.2845 44.425 296.62823Q44.175 296.972 44.175 297.87823Q44.175 298.70636 44.425 299.0501Q44.690624 299.37823 45.08125 299.37823Q45.4875 299.37823 45.7375 299.0345Q46.003124 298.69073 46.003124 297.8001Q46.003124 296.95636 45.7375 296.62823Q45.471874 296.2845 45.08125 296.2845ZM45.08125 304.6126L49.784374 295.56573L50.64375 295.56573L45.95625 304.6126L45.08125 304.6126ZM48.8 302.2845Q48.8 301.3626 49.253124 300.722Q49.721874 300.08136 50.6125 300.08136Q51.425 300.08136 51.95625 300.6595Q52.4875 301.222 52.4875 302.347Q52.4875 303.44073 51.940624 304.0345Q51.409374 304.6126 50.6125 304.6126Q49.846874 304.6126 49.315624 304.0345Q48.8 303.45636 48.8 302.2845ZM50.64375 300.8001Q50.2375 300.8001 49.971874 301.14386Q49.721874 301.4876 49.721874 302.39386Q49.721874 303.20636 49.9875 303.5501Q50.253124 303.89386 50.64375 303.89386Q51.034374 303.89386 51.3 303.5501Q51.565624 303.20636 51.565624 302.3001Q51.565624 301.472 51.3 301.14386Q51.034374 300.8001 50.64375 300.8001Z" fill-rule="nonzero"/><path stroke="#757575" stroke-width="1.0" stroke-linecap="butt" d="M18.55 291.8001L145.23334 291.8001L189.50507 291.8001" fill-rule="nonzero"/><path fill="#9e9e9e" d="M191.50507 291.8001C191.50507 290.69553 190.60963 289.8001 189.50507 289.8001C188.4005 289.8001 187.50507 290.69553 187.50507 291.8001C187.50507 292.90466 188.4005 293.8001 189.50507 293.8001C190.60963 293.8001 191.50507 292.90466 191.50507 291.8001" fill-rule="nonzero"/><path fill="#000000" d="M563.79376 111.06656L563.79376 107.425934L560.48126 102.47281L561.8719 102.47281L563.5594 105.06656Q564.02814 105.78531 564.4344 106.519684Q564.825 105.84781 565.3719 105.00406L567.04376 102.47281L568.35626 102.47281L564.9344 107.425934L564.9344 111.06656L563.79376 111.06656ZM572.4969 109.06656L573.59064 109.19156Q573.34064 110.144684 572.6375 110.675934Q571.9344 111.207184 570.85626 111.207184Q569.4969 111.207184 568.6844 110.363434Q567.8875 109.519684 567.8875 108.00406Q567.8875 106.44156 568.7 105.582184Q569.5125 104.707184 570.79376 104.707184Q572.04376 104.707184 572.825 105.550934Q573.6219 106.394684 573.6219 107.94156Q573.6219 108.03531 573.6219 108.22281L568.98126 108.22281Q569.04376 109.25406 569.5594 109.800934Q570.075 110.332184 570.85626 110.332184Q571.4344 110.332184 571.84064 110.03531Q572.2625 109.72281 572.4969 109.06656ZM569.04376 107.363434L572.5125 107.363434Q572.45 106.56656 572.1219 106.175934Q571.60626 105.56656 570.8094 105.56656Q570.075 105.56656 569.575 106.050934Q569.09064 106.53531 569.04376 107.363434ZM574.825 109.207184L575.85626 109.050934Q575.95 109.675934 576.34064 110.00406Q576.7469 110.332184 577.48126 110.332184Q578.2 110.332184 578.54376 110.050934Q578.90314 109.75406 578.90314 109.34781Q578.90314 108.988434 578.59064 108.78531Q578.3719 108.644684 577.5125 108.425934Q576.35626 108.12906 575.90314 107.925934Q575.46564 107.707184 575.23126 107.332184Q574.9969 106.957184 574.9969 106.488434Q574.9969 106.082184 575.1844 105.72281Q575.3719 105.363434 575.7 105.12906Q575.95 104.957184 576.3719 104.832184Q576.79376 104.707184 577.29376 104.707184Q578.0125 104.707184 578.5594 104.925934Q579.1219 105.12906 579.3875 105.488434Q579.65314 105.84781 579.7469 106.44156L578.71564 106.582184Q578.65314 106.113434 578.3094 105.84781Q577.98126 105.56656 577.35626 105.56656Q576.6375 105.56656 576.325 105.81656Q576.0125 106.050934 576.0125 106.37906Q576.0125 106.582184 576.1375 106.738434Q576.27814 106.91031 576.54376 107.019684Q576.7 107.082184 577.48126 107.28531Q578.60626 107.59781 579.04376 107.78531Q579.48126 107.97281 579.73126 108.332184Q579.98126 108.69156 579.98126 109.238434Q579.98126 109.769684 579.66876 110.238434Q579.3719 110.69156 578.79376 110.957184Q578.21564 111.207184 577.48126 111.207184Q576.2625 111.207184 575.6219 110.707184Q574.9969 110.19156 574.825 109.207184Z" fill-rule="nonzero"/><path fill="#9e9e9e" d="M552.4969 127.050934L552.4969 128.06656L546.8094 128.06656Q546.8094 127.69156 546.9344 127.332184Q547.15314 126.75406 547.6219 126.19156Q548.10626 125.62906 549.0125 124.894684Q550.41876 123.738434 550.90314 123.06656Q551.40314 122.394684 551.40314 121.800934Q551.40314 121.175934 550.95 120.75406Q550.4969 120.31656 549.77814 120.31656Q549.0125 120.31656 548.5594 120.769684Q548.10626 121.22281 548.09064 122.03531L547.0125 121.925934Q547.1219 120.707184 547.84064 120.082184Q548.575 119.44156 549.8094 119.44156Q551.04376 119.44156 551.7625 120.12906Q552.48126 120.81656 552.48126 121.832184Q552.48126 122.34781 552.2625 122.84781Q552.0594 123.332184 551.5594 123.894684Q551.075 124.44156 549.95 125.394684Q548.9969 126.19156 548.71564 126.488434Q548.45 126.769684 548.27814 127.050934L552.4969 127.050934ZM555.575 123.41031Q554.91876 123.16031 554.59064 122.72281Q554.27814 122.269684 554.27814 121.66031Q554.27814 120.72281 554.95 120.082184Q555.6375 119.44156 556.7469 119.44156Q557.8719 119.44156 558.5594 120.09781Q559.2469 120.75406 559.2469 121.69156Q559.2469 122.28531 558.9344 122.72281Q558.6219 123.16031 557.98126 123.41031Q558.77814 123.66031 559.1844 124.238434Q559.59064 124.81656 559.59064 125.613434Q559.59064 126.707184 558.8094 127.457184Q558.04376 128.20718 556.7625 128.20718Q555.4969 128.20718 554.71564 127.457184Q553.9344 126.707184 553.9344 125.582184Q553.9344 124.738434 554.35626 124.175934Q554.79376 123.613434 555.575 123.41031ZM555.35626 121.613434Q555.35626 122.22281 555.7469 122.613434Q556.15314 123.00406 556.77814 123.00406Q557.3875 123.00406 557.77814 122.62906Q558.16876 122.238434 558.16876 121.675934Q558.16876 121.09781 557.7625 120.707184Q557.35626 120.300934 556.7625 120.300934Q556.15314 120.300934 555.7469 120.69156Q555.35626 121.082184 555.35626 121.613434ZM555.02814 125.582184Q555.02814 126.03531 555.23126 126.457184Q555.45 126.87906 555.8719 127.113434Q556.29376 127.34781 556.77814 127.34781Q557.52814 127.34781 558.0125 126.863434Q558.5125 126.37906 558.5125 125.62906Q558.5125 124.863434 558.0125 124.363434Q557.5125 123.863434 556.7469 123.863434Q555.9969 123.863434 555.5125 124.363434Q555.02814 124.84781 555.02814 125.582184ZM561.54376 128.06656L561.54376 126.863434L562.7469 126.863434L562.7469 128.06656L561.54376 128.06656ZM569.41876 121.582184L568.3719 121.66031Q568.23126 121.03531 567.98126 120.75406Q567.54376 120.300934 566.91876 120.300934Q566.41876 120.300934 566.02814 120.582184Q565.54376 120.957184 565.2469 121.66031Q564.96564 122.34781 564.95 123.62906Q565.325 123.050934 565.8719 122.769684Q566.4344 122.488434 567.04376 122.488434Q568.09064 122.488434 568.825 123.269684Q569.575 124.050934 569.575 125.269684Q569.575 126.082184 569.21564 126.78531Q568.8719 127.47281 568.2625 127.84781Q567.65314 128.20718 566.8875 128.20718Q565.5594 128.20718 564.73126 127.238434Q563.90314 126.269684 563.90314 124.050934Q563.90314 121.550934 564.825 120.425934Q565.6219 119.44156 566.98126 119.44156Q567.9969 119.44156 568.6375 120.019684Q569.29376 120.582184 569.41876 121.582184ZM565.1219 125.28531Q565.1219 125.832184 565.34064 126.332184Q565.575 126.81656 565.98126 127.082184Q566.40314 127.34781 566.8719 127.34781Q567.52814 127.34781 568.0125 126.81656Q568.4969 126.269684 568.4969 125.34781Q568.4969 124.457184 568.0125 123.94156Q567.54376 123.425934 566.825 123.425934Q566.10626 123.425934 565.60626 123.94156Q565.1219 124.457184 565.1219 125.28531ZM571.15314 121.53531Q571.15314 120.613434 571.60626 119.97281Q572.075 119.332184 572.95 119.332184Q573.7625 119.332184 574.29376 119.91031Q574.825 120.488434 574.825 121.59781Q574.825 122.69156 574.27814 123.28531Q573.7469 123.863434 572.96564 123.863434Q572.1844 123.863434 571.66876 123.28531Q571.15314 122.707184 571.15314 121.53531ZM572.98126 120.050934Q572.59064 120.050934 572.325 120.394684Q572.075 120.738434 572.075 121.644684Q572.075 122.47281 572.325 122.81656Q572.59064 123.144684 572.98126 123.144684Q573.3875 123.144684 573.6375 122.800934Q573.90314 122.457184 573.90314 121.56656Q573.90314 120.72281 573.6375 120.394684Q573.3719 120.050934 572.98126 120.050934ZM572.98126 128.37906L577.6844 119.332184L578.54376 119.332184L573.85626 128.37906L572.98126 128.37906ZM576.7 126.050934Q576.7 125.12906 577.15314 124.488434Q577.6219 123.84781 578.5125 123.84781Q579.325 123.84781 579.85626 124.425934Q580.3875 124.988434 580.3875 126.113434Q580.3875 127.207184 579.84064 127.800934Q579.3094 128.37906 578.5125 128.37906Q577.7469 128.37906 577.21564 127.800934Q576.7 127.22281 576.7 126.050934ZM578.54376 124.56656Q578.1375 124.56656 577.8719 124.91031Q577.6219 125.25406 577.6219 126.16031Q577.6219 126.97281 577.8875 127.31656Q578.15314 127.66031 578.54376 127.66031Q578.9344 127.66031 579.2 127.31656Q579.46564 126.97281 579.46564 126.06656Q579.46564 125.238434 579.2 124.91031Q578.9344 124.56656 578.54376 124.56656Z" fill-rule="nonzero"/><path stroke="#757575" stroke-width="1.0" stroke-linecap="butt" d="M581.45 115.56656L454.76666 115.56656L410.49493 115.56656" fill-rule="nonzero"/><path fill="#9e9e9e" d="M412.49493 115.56656C412.49493 114.46199 411.59952 113.56656 410.49493 113.56656C409.39038 113.56656 408.49493 114.46199 408.49493 115.56656C408.49493 116.67113 409.39038 117.56656 410.49493 117.56656C411.59952 117.56656 412.49493 116.67113 412.49493 115.56656" fill-rule="nonzero"/><path fill="#000000" d="M18.51875 37.55L24.01875 23.2375L26.065624 23.2375L31.925 37.55L29.76875 37.55L28.096874 33.20625L22.1125 33.20625L20.534374 37.55L18.51875 37.55ZM22.659374 31.675L27.503124 31.675L26.01875 27.70625Q25.33125 25.89375 25.003124 24.7375Q24.721874 26.1125 24.221874 27.471874L22.659374 31.675ZM32.846874 37.55L32.846874 27.175L34.425 27.175L34.425 28.753124Q35.034374 27.64375 35.55 27.3Q36.065624 26.940624 36.675 26.940624Q37.565624 26.940624 38.4875 27.503124L37.878124 29.14375Q37.2375 28.753124 36.596874 28.753124Q36.01875 28.753124 35.55 29.1125Q35.096874 29.45625 34.89375 30.065624Q34.6125 31.003124 34.6125 32.1125L34.6125 37.55L32.846874 37.55ZM46.971874 34.20625L48.784374 34.440624Q48.3625 36.01875 47.190624 36.909374Q46.034374 37.784374 44.221874 37.784374Q41.95625 37.784374 40.6125 36.39375Q39.284374 34.9875 39.284374 32.45625Q39.284374 29.83125 40.628124 28.39375Q41.971874 26.940624 44.128124 26.940624Q46.20625 26.940624 47.51875 28.3625Q48.846874 29.76875 48.846874 32.346874Q48.846874 32.503124 48.83125 32.815624L41.096874 32.815624Q41.190624 34.51875 42.065624 35.425Q42.940624 36.33125 44.2375 36.33125Q45.20625 36.33125 45.878124 35.83125Q46.565624 35.315624 46.971874 34.20625ZM41.190624 31.3625L46.9875 31.3625Q46.878124 30.065624 46.33125 29.409374Q45.4875 28.39375 44.14375 28.39375Q42.940624 28.39375 42.1125 29.20625Q41.284374 30.003124 41.190624 31.3625ZM56.51875 30.58125Q56.51875 27.01875 58.425 25.003124Q60.346874 22.971874 63.378124 22.971874Q65.3625 22.971874 66.94063 23.925Q68.53438 24.878124 69.3625 26.58125Q70.20625 28.26875 70.20625 30.409374Q70.20625 32.58125 69.33125 34.3Q68.45625 36.01875 66.83125 36.909374Q65.22188 37.8 63.3625 37.8Q61.346874 37.8 59.753124 36.83125Q58.159374 35.846874 57.33125 34.159374Q56.51875 32.45625 56.51875 30.58125ZM58.471874 30.6125Q58.471874 33.190624 59.8625 34.690624Q61.253124 36.175 63.346874 36.175Q65.4875 36.175 66.8625 34.675Q68.25313 33.159374 68.25313 30.39375Q68.25313 28.659374 67.65938 27.3625Q67.08125 26.05 65.94063 25.33125Q64.8 24.6125 63.378124 24.6125Q61.378124 24.6125 59.925 26.003124Q58.471874 27.378124 58.471874 30.6125ZM72.8625 37.55L72.8625 27.175L74.45625 27.175L74.45625 28.659374Q75.59688 26.940624 77.75313 26.940624Q78.69063 26.940624 79.47188 27.284374Q80.26875 27.6125 80.65938 28.159374Q81.05 28.70625 81.20625 29.45625Q81.3 29.95625 81.3 31.175L81.3 37.55L79.53438 37.55L79.53438 31.2375Q79.53438 30.159374 79.33125 29.628124Q79.12813 29.096874 78.59688 28.784374Q78.08125 28.471874 77.37813 28.471874Q76.25313 28.471874 75.44063 29.190624Q74.62813 29.89375 74.62813 31.878124L74.62813 37.55L72.8625 37.55ZM82.83125 37.55L82.83125 23.2375L84.58125 23.2375L84.58125 37.55L82.83125 37.55ZM86.87813 25.253124L86.87813 23.2375L88.64375 23.2375L88.64375 25.253124L86.87813 25.253124ZM86.87813 37.55L86.87813 27.175L88.64375 27.175L88.64375 37.55L86.87813 37.55ZM90.8625 37.55L90.8625 27.175L92.45625 27.175L92.45625 28.659374Q93.59688 26.940624 95.75313 26.940624Q96.69063 26.940624 97.47188 27.284374Q98.26875 27.6125 98.65938 28.159374Q99.05 28.70625 99.20625 29.45625Q99.3 29.95625 99.3 31.175L99.3 37.55L97.53438 37.55L97.53438 31.2375Q97.53438 30.159374 97.33125 29.628124Q97.12813 29.096874 96.59688 28.784374Q96.08125 28.471874 95.37813 28.471874Q94.25313 28.471874 93.44063 29.190624Q92.62813 29.89375 92.62813 31.878124L92.62813 37.55L90.8625 37.55ZM107.97188 34.20625L109.78438 34.440624Q109.3625 36.01875 108.19063 36.909374Q107.03438 37.784374 105.22188 37.784374Q102.95625 37.784374 101.6125 36.39375Q100.28438 34.9875 100.28438 32.45625Q100.28438 29.83125 101.62813 28.39375Q102.97188 26.940624 105.12813 26.940624Q107.20625 26.940624 108.51875 28.3625Q109.84688 29.76875 109.84688 32.346874Q109.84688 32.503124 109.83125 32.815624L102.09688 32.815624Q102.19063 34.51875 103.06563 35.425Q103.94063 36.33125 105.2375 36.33125Q106.20625 36.33125 106.87813 35.83125Q107.56563 35.315624 107.97188 34.20625ZM102.19063 31.3625L107.9875 31.3625Q107.87813 30.065624 107.33125 29.409374Q106.4875 28.39375 105.14375 28.39375Q103.94063 28.39375 103.1125 29.20625Q102.28438 30.003124 102.19063 31.3625ZM116.51875 37.55L122.01875 23.2375L124.06563 23.2375L129.925 37.55L127.76875 37.55L126.09688 33.20625L120.1125 33.20625L118.53438 37.55L116.51875 37.55ZM120.65938 31.675L125.50313 31.675L124.01875 27.70625Q123.33125 25.89375 123.00313 24.7375Q122.72188 26.1125 122.22188 27.471874L120.65938 31.675ZM137.64375 33.753124L139.3625 33.971874Q139.08125 35.76875 137.90938 36.784374Q136.75313 37.784374 135.05 37.784374Q132.925 37.784374 131.62813 36.39375Q130.33125 35.003124 130.33125 32.409374Q130.33125 30.721874 130.87813 29.471874Q131.44063 28.20625 132.58125 27.58125Q133.72188 26.940624 135.06563 26.940624Q136.75313 26.940624 137.81563 27.8Q138.89375 28.659374 139.20625 30.221874L137.4875 30.4875Q137.25313 29.440624 136.62813 28.925Q136.00313 28.39375 135.12813 28.39375Q133.8 28.39375 132.97188 29.346874Q132.14375 30.3 132.14375 32.346874Q132.14375 34.440624 132.94063 35.39375Q133.7375 36.33125 135.03438 36.33125Q136.06563 36.33125 136.75313 35.70625Q137.45625 35.065624 137.64375 33.753124ZM147.64375 33.753124L149.3625 33.971874Q149.08125 35.76875 147.90938 36.784374Q146.75313 37.784374 145.05 37.784374Q142.925 37.784374 141.62813 36.39375Q140.33125 35.003124 140.33125 32.409374Q140.33125 30.721874 140.87813 29.471874Q141.44063 28.20625 142.58125 27.58125Q143.72188 26.940624 145.06563 26.940624Q146.75313 26.940624 147.81563 27.8Q148.89375 28.659374 149.20625 30.221874L147.4875 30.4875Q147.25313 29.440624 146.62813 28.925Q146.00313 28.39375 145.12813 28.39375Q143.8 28.39375 142.97188 29.346874Q142.14375 30.3 142.14375 32.346874Q142.14375 34.440624 142.94063 35.39375Q143.7375 36.33125 145.03438 36.33125Q146.06563 36.33125 146.75313 35.70625Q147.45625 35.065624 147.64375 33.753124ZM150.22188 32.3625Q150.22188 29.4875 151.81563 28.096874Q153.15938 26.940624 155.08125 26.940624Q157.22188 26.940624 158.56563 28.346874Q159.925 29.753124 159.925 32.221874Q159.925 34.221874 159.33125 35.378124Q158.7375 36.51875 157.58125 37.159374Q156.44063 37.784374 155.08125 37.784374Q152.89375 37.784374 151.55 36.39375Q150.22188 34.9875 150.22188 32.3625ZM152.01875 32.3625Q152.01875 34.3625 152.87813 35.346874Q153.75313 36.33125 155.08125 36.33125Q156.39375 36.33125 157.25313 35.346874Q158.12813 34.346874 158.12813 32.3Q158.12813 30.378124 157.25313 29.39375Q156.37813 28.39375 155.08125 28.39375Q153.75313 28.39375 152.87813 29.39375Q152.01875 30.378124 152.01875 32.3625ZM168.65938 37.55L168.65938 36.01875Q167.45625 37.784374 165.37813 37.784374Q164.45625 37.784374 163.65938 37.440624Q162.8625 37.08125 162.47188 36.55Q162.09688 36.01875 161.94063 35.2375Q161.83125 34.721874 161.83125 33.596874L161.83125 27.175L163.58125 27.175L163.58125 32.925Q163.58125 34.3 163.69063 34.784374Q163.8625 35.471874 164.39375 35.878124Q164.94063 36.26875 165.72188 36.26875Q166.51875 36.26875 167.20625 35.8625Q167.90938 35.45625 168.19063 34.76875Q168.4875 34.065624 168.4875 32.7375L168.4875 27.175L170.2375 27.175L170.2375 37.55L168.65938 37.55ZM171.8625 37.55L171.8625 27.175L173.45625 27.175L173.45625 28.659374Q174.59688 26.940624 176.75313 26.940624Q177.69063 26.940624 178.47188 27.284374Q179.26875 27.6125 179.65938 28.159374Q180.05 28.70625 180.20625 29.45625Q180.3 29.95625 180.3 31.175L180.3 37.55L178.53438 37.55L178.53438 31.2375Q178.53438 30.159374 178.33125 29.628124Q178.12813 29.096874 177.59688 28.784374Q177.08125 28.471874 176.37813 28.471874Q175.25313 28.471874 174.44063 29.190624Q173.62813 29.89375 173.62813 31.878124L173.62813 37.55L171.8625 37.55ZM185.70625 35.971874L185.95625 37.534374Q185.22188 37.690624 184.62813 37.690624Q183.675 37.690624 183.14375 37.39375Q182.62813 37.08125 182.40938 36.596874Q182.19063 36.096874 182.19063 34.51875L182.19063 28.55L180.90938 28.55L180.90938 27.175L182.19063 27.175L182.19063 24.6125L183.94063 23.55L183.94063 27.175L185.70625 27.175L185.70625 28.55L183.94063 28.55L183.94063 34.6125Q183.94063 35.3625 184.03438 35.58125Q184.12813 35.784374 184.33125 35.925Q184.55 36.05 184.94063 36.05Q185.22188 36.05 185.70625 35.971874ZM187.15938 34.45625L188.90938 34.175Q189.05 35.221874 189.72188 35.784374Q190.39375 36.33125 191.59688 36.33125Q192.8 36.33125 193.37813 35.846874Q193.97188 35.346874 193.97188 34.690624Q193.97188 34.096874 193.45625 33.753124Q193.09688 33.51875 191.65938 33.159374Q189.72188 32.659374 188.97188 32.315624Q188.2375 31.95625 187.84688 31.33125Q187.45625 30.690624 187.45625 29.925Q187.45625 29.2375 187.76875 28.64375Q188.09688 28.05 188.64375 27.659374Q189.05 27.3625 189.75313 27.159374Q190.47188 26.940624 191.28438 26.940624Q192.50313 26.940624 193.425 27.3Q194.34688 27.64375 194.78438 28.253124Q195.22188 28.846874 195.39375 29.846874L193.675 30.08125Q193.55 29.284374 192.9875 28.846874Q192.425 28.39375 191.40938 28.39375Q190.19063 28.39375 189.675 28.8Q189.15938 29.190624 189.15938 29.721874Q189.15938 30.065624 189.37813 30.346874Q189.58125 30.628124 190.05 30.815624Q190.31563 30.909374 191.59688 31.253124Q193.47188 31.753124 194.20625 32.08125Q194.94063 32.39375 195.3625 33.003124Q195.78438 33.596874 195.78438 34.503124Q195.78438 35.378124 195.26875 36.159374Q194.75313 36.940624 193.78438 37.3625Q192.81563 37.784374 191.59688 37.784374Q189.58125 37.784374 188.51875 36.940624Q187.45625 36.096874 187.15938 34.45625ZM202.51875 37.55L208.01875 23.2375L210.06563 23.2375L215.925 37.55L213.76875 37.55L212.09688 33.20625L206.1125 33.20625L204.53438 37.55L202.51875 37.55ZM206.65938 31.675L211.50313 31.675L210.01875 27.70625Q209.33125 25.89375 209.00313 24.7375Q208.72188 26.1125 208.22188 27.471874L206.65938 31.675ZM223.65938 37.55L223.65938 36.01875Q222.45625 37.784374 220.37813 37.784374Q219.45625 37.784374 218.65938 37.440624Q217.8625 37.08125 217.47188 36.55Q217.09688 36.01875 216.94063 35.2375Q216.83125 34.721874 216.83125 33.596874L216.83125 27.175L218.58125 27.175L218.58125 32.925Q218.58125 34.3 218.69063 34.784374Q218.8625 35.471874 219.39375 35.878124Q219.94063 36.26875 220.72188 36.26875Q221.51875 36.26875 222.20625 35.8625Q222.90938 35.45625 223.19063 34.76875Q223.4875 34.065624 223.4875 32.7375L223.4875 27.175L225.2375 27.175L225.2375 37.55L223.65938 37.55ZM230.70625 35.971874L230.95625 37.534374Q230.22188 37.690624 229.62813 37.690624Q228.675 37.690624 228.14375 37.39375Q227.62813 37.08125 227.40938 36.596874Q227.19063 36.096874 227.19063 34.51875L227.19063 28.55L225.90938 28.55L225.90938 27.175L227.19063 27.175L227.19063 24.6125L228.94063 23.55L228.94063 27.175L230.70625 27.175L230.70625 28.55L228.94063 28.55L228.94063 34.6125Q228.94063 35.3625 229.03438 35.58125Q229.12813 35.784374 229.33125 35.925Q229.55 36.05 229.94063 36.05Q230.22188 36.05 230.70625 35.971874ZM232.8625 37.55L232.8625 23.2375L234.62813 23.2375L234.62813 28.3625Q235.8625 26.940624 237.7375 26.940624Q238.87813 26.940624 239.72188 27.39375Q240.58125 27.846874 240.94063 28.659374Q241.31563 29.45625 241.31563 30.971874L241.31563 37.55L239.56563 37.55L239.56563 30.971874Q239.56563 29.659374 238.9875 29.065624Q238.40938 28.45625 237.37813 28.45625Q236.59688 28.45625 235.89375 28.8625Q235.20625 29.26875 234.90938 29.971874Q234.62813 30.659374 234.62813 31.878124L234.62813 37.55L232.8625 37.55ZM249.97188 34.20625L251.78438 34.440624Q251.3625 36.01875 250.19063 36.909374Q249.03438 37.784374 247.22188 37.784374Q244.95625 37.784374 243.6125 36.39375Q242.28438 34.9875 242.28438 32.45625Q242.28438 29.83125 243.62813 28.39375Q244.97188 26.940624 247.12813 26.940624Q249.20625 26.940624 250.51875 28.3625Q251.84688 29.76875 251.84688 32.346874Q251.84688 32.503124 251.83125 32.815624L244.09688 32.815624Q244.19063 34.51875 245.06563 35.425Q245.94063 36.33125 247.2375 36.33125Q248.20625 36.33125 248.87813 35.83125Q249.56563 35.315624 249.97188 34.20625ZM244.19063 31.3625L249.9875 31.3625Q249.87813 30.065624 249.33125 29.409374Q248.4875 28.39375 247.14375 28.39375Q245.94063 28.39375 245.1125 29.20625Q244.28438 30.003124 244.19063 31.3625ZM253.8625 37.55L253.8625 27.175L255.45625 27.175L255.45625 28.659374Q256.59686 26.940624 258.7531 26.940624Q259.6906 26.940624 260.47186 27.284374Q261.26874 27.6125 261.65936 28.159374Q262.05 28.70625 262.20624 29.45625Q262.3 29.95625 262.3 31.175L262.3 37.55L260.53436 37.55L260.53436 31.2375Q260.53436 30.159374 260.33124 29.628124Q260.1281 29.096874 259.59686 28.784374Q259.08124 28.471874 258.3781 28.471874Q257.2531 28.471874 256.4406 29.190624Q255.62813 29.89375 255.62813 31.878124L255.62813 37.55L253.8625 37.55ZM267.70624 35.971874L267.95624 37.534374Q267.22186 37.690624 266.6281 37.690624Q265.675 37.690624 265.14374 37.39375Q264.6281 37.08125 264.40936 36.596874Q264.1906 36.096874 264.1906 34.51875L264.1906 28.55L262.90936 28.55L262.90936 27.175L264.1906 27.175L264.1906 24.6125L265.9406 23.55L265.9406 27.175L267.70624 27.175L267.70624 28.55L265.9406 28.55L265.9406 34.6125Q265.9406 35.3625 266.03436 35.58125Q266.1281 35.784374 266.33124 35.925Q266.55 36.05 266.9406 36.05Q267.22186 36.05 267.70624 35.971874ZM269.8781 25.253124L269.8781 23.2375L271.64374 23.2375L271.64374 25.253124L269.8781 25.253124ZM269.8781 37.55L269.8781 27.175L271.64374 27.175L271.64374 37.55L269.8781 37.55ZM280.64374 33.753124L282.3625 33.971874Q282.08124 35.76875 280.90936 36.784374Q279.7531 37.784374 278.05 37.784374Q275.925 37.784374 274.6281 36.39375Q273.33124 35.003124 273.33124 32.409374Q273.33124 30.721874 273.8781 29.471874Q274.4406 28.20625 275.58124 27.58125Q276.72186 26.940624 278.0656 26.940624Q279.7531 26.940624 280.8156 27.8Q281.89374 28.659374 282.20624 30.221874L280.4875 30.4875Q280.2531 29.440624 279.6281 28.925Q279.0031 28.39375 278.1281 28.39375Q276.8 28.39375 275.97186 29.346874Q275.14374 30.3 275.14374 32.346874Q275.14374 34.440624 275.9406 35.39375Q276.7375 36.33125 278.03436 36.33125Q279.0656 36.33125 279.7531 35.70625Q280.45624 35.065624 280.64374 33.753124ZM287.15936 34.01875Q287.14374 33.675 287.14374 33.503124Q287.14374 32.45625 287.4406 31.70625Q287.65936 31.14375 288.14374 30.565624Q288.4875 30.14375 289.39374 29.346874Q290.3156 28.534374 290.58124 28.065624Q290.8625 27.58125 290.8625 27.01875Q290.8625 25.9875 290.05 25.221874Q289.2531 24.440624 288.09686 24.440624Q286.97186 24.440624 286.22186 25.14375Q285.47186 25.846874 285.2375 27.33125L283.425 27.1125Q283.675 25.1125 284.8781 24.05Q286.08124 22.9875 288.0656 22.9875Q290.175 22.9875 291.425 24.128124Q292.675 25.26875 292.675 26.89375Q292.675 27.83125 292.22186 28.628124Q291.78436 29.409374 290.5031 30.55Q289.64374 31.315624 289.3781 31.675Q289.1281 32.034374 288.9875 32.503124Q288.8625 32.971874 288.84686 34.01875L287.15936 34.01875ZM287.05 37.55L287.05 35.55L289.05 35.55L289.05 37.55L287.05 37.55Z" fill-rule="nonzero"/></svg>